<svg xmlns="http://www.w3.org/2000/svg" xmlns:xlink="http://www.w3.org/1999/xlink" id="Layer_1" x="0px" y="0px" viewBox="0 0 120 26" style="enable-background:new 0 0 120 26;" xml:space="preserve"><style type="text/css">	.st0{fill:#101E2C;}	.st1{fill-rule:evenodd;clip-rule:evenodd;fill:#101E2C;}</style><path class="st0" d="M17.5,0h-2.3c-0.2,0-0.4,0.2-0.4,0.4v10.2H3.1V0.4C3.1,0.2,2.9,0,2.7,0H0.4C0.2,0,0,0.2,0,0.4v23.7 c0,0.2,0.2,0.4,0.4,0.4h2.3c0.2,0,0.4-0.2,0.4-0.4V13.9h11.6v10.2c0,0.2,0.2,0.4,0.4,0.4h2.3c0.2,0,0.4-0.2,0.4-0.4V0.4 C17.8,0.2,17.7,0,17.5,0z"></path><path class="st1" d="M28.2,6.9c-4.8,0-8.6,4.1-8.6,9.1c0,5,3.9,9.1,8.6,9.1s8.6-4.1,8.6-9.1C36.9,11,33,6.9,28.2,6.9z M28.2,21.7 c-3,0-5.5-2.6-5.5-5.7c0-3.2,2.4-5.7,5.5-5.7s5.5,2.6,5.5,5.7C33.7,19.1,31.3,21.7,28.2,21.7z"></path><path class="st0" d="M47.4,6.8c0,0,0.1,0,0.1,0c0.8,0,0.7,0.7,0.7,0.7s0,1,0,1.7c0,0.7-0.5,0.7-0.8,0.7c-5,0.5-4.9,6.6-4.9,6.6 l0,7.1l0,0l0,0.7c0,0.2-0.2,0.4-0.4,0.4h-2.2c-0.2,0-0.4-0.2-0.4-0.4V7.6c0-0.2,0.2-0.4,0.4-0.4h1.8c0.2,0,0.4,0.2,0.4,0.4l0.1,2.3 C44.1,6.8,46.5,6.8,47.4,6.8z"></path><path class="st0" d="M54.3,7.2h-3.4c-0.4,0-0.8,0.4-0.8,0.8v1.5c0,0.4,0.3,0.8,0.8,0.8h1v13.6c0,0.4,0.3,0.7,0.7,0.7h1.8 c0.4,0,0.7-0.3,0.7-0.7V10.2h0V8C55,7.5,54.7,7.2,54.3,7.2z"></path><path class="st0" d="M54.9,1.8C55,2.9,54.3,3.9,53.2,4c-1,0.1-2-0.7-2.1-1.8s0.7-2.1,1.7-2.2C53.9-0.1,54.8,0.7,54.9,1.8z"></path><path class="st0" d="M70.1,7.2H58.6c-0.4,0-0.7,0.3-0.7,0.7v1.5c0,0.4,0.3,0.7,0.7,0.7H66l-7.3,11.2l0,0l-1.3,1.9 c-0.3,0.5,0,1.2,0.6,1.2h11.4c0.4,0,0.7-0.3,0.7-0.7v-1.5c0-0.4-0.3-0.7-0.7-0.7H62l6.7-10.3c0,0,0,0,0,0c0,0,0,0,0-0.1l0.4-0.6 c0.1-0.1,0.2-0.3,0.3-0.4h0l0.4-0.7L70,9.3h0l0.7-1.1C70.9,7.8,70.6,7.2,70.1,7.2z"></path><path class="st0" d="M93.1,9.4c0.7-1.1,2.1-2.6,6-2.5c5.5,0.2,5.5,6.6,5.5,6.6l0,10.4c0,0.4-0.3,0.7-0.7,0.7l-1.8,0 c-0.4,0-0.6-0.3-0.6-0.7c0-1.7,0-6.5,0-9.7c-0.1-4-2.2-4.3-3.9-4.3c-3.9,0.3-4.2,5-4.2,5l0,7.4l0,1.8c0,0.3-0.2,0.5-0.5,0.5h-2.1 c-0.3,0-0.5-0.2-0.5-0.5V7.7c0-0.3,0.2-0.5,0.5-0.5h1.7c0.3,0,0.5,0.2,0.5,0.5L93.1,9.4z"></path><path class="st0" d="M120,19.2c-0.1-2.6-1.8-3.8-4.8-4.6c-0.3-0.1-0.7-0.2-1-0.2c-2.4-0.6-3.9-1-3.9-2.8c0.1-2.1,4.8-1.9,6.8-1.1 c0.8,0.3,1.5,0.4,1.6-0.2c0.2-0.5,0.1-0.5,0.1-0.5l0.2-1c0,0,0.3-0.7-0.5-1c-0.8-0.3-2.9-1-5.1-0.9c-2.2,0.1-5.4,0.3-6.3,4.3 c-0.1,0.4-0.2,4.2,3.4,5.2c0.7,0.2,1.3,0.4,1.9,0.5c2.6,0.7,4.4,1.2,4.3,2.7c-0.1,1.9-2.8,2.6-5,2.1c-1.4-0.3-2.2-0.6-2.8-0.7 c-0.3-0.1-0.6-0.2-0.7-0.2c-0.4-0.1-0.6,0.1-0.7,0.5l-0.2,0.4l-0.4,0.9c0,0-0.3,0.8,0.5,1.1c0.8,0.3,3.6,1.4,7.5,1.1 C118.9,24.5,120.1,21.8,120,19.2z"></path><path class="st0" d="M74.6,21.5H86c0.2,0,0.3,0.3,0.2,0.4c-1.5,1.6-3.6,2.6-5.9,2.6c-2.3,0-4.4-1-5.9-2.6 C74.2,21.8,74.4,21.5,74.6,21.5z"></path><path class="st0" d="M88.6,15.1c-0.4-4.2-3.8-7.5-7.8-7.8C76,7,72,11,72,16c0,0.9,0.1,1.7,0.4,2.5c0,0.1,0.1,0.2,0.2,0.2h2.7 c0.2,0,0.3-0.2,0.2-0.3c-0.3-0.8-0.5-1.6-0.5-2.5c0.1-3,2.5-5.4,5.4-5.4c2.9,0,5.3,2.5,5.3,5.6c0,0.8-0.2,1.7-0.5,2.4 c-0.1,0.1,0,0.3,0.2,0.3H88c0.1,0,0.2-0.1,0.2-0.2C88.6,17.5,88.7,16.3,88.6,15.1z"></path></svg>